<svg width="10" height="9" viewBox="0 0 10 9" fill="none" xmlns="http://www.w3.org/2000/svg">
<path d="M1.45341 0.0461895L6.738 0.0690671C6.96677 0.0690668 7.21841 0.183452 7.37855 0.343591C7.44718 0.412222 7.49294 0.457975 7.51581 0.526607C7.60732 0.663869 7.6302 0.824008 7.65308 0.984147C7.65308 1.48744 7.24129 1.89923 6.71512 1.9221H3.5581L8.7283 7.0923C8.95707 7.32107 9.04857 7.6871 8.97994 7.9845C8.93419 8.12176 8.86556 8.2819 8.75117 8.39629C8.38514 8.76232 7.79034 8.76232 7.42431 8.39629L2.23123 3.20321L2.27699 6.36024C2.27699 6.86353 1.8652 7.27532 1.33903 7.29819C1.15601 7.29819 1.01875 7.25244 0.88149 7.16093C0.812859 7.13805 0.744228 7.06942 0.698474 7.02367C0.515458 6.84065 0.423951 6.61188 0.423951 6.38311V1.0299C0.423951 0.755377 0.515459 0.526607 0.698475 0.343591C0.904367 0.0919441 1.17889 0.000435183 1.45341 0.0461895Z" fill="#0084FF"/>
</svg>
