<svg width="12" height="10" viewBox="0 0 12 10" fill="none" xmlns="http://www.w3.org/2000/svg">
<path d="M11.0647 5.46765L7.31176 9.18823C7.15 9.35 6.89118 9.44706 6.66471 9.44706C6.56765 9.44706 6.50294 9.44706 6.43824 9.41471C6.27647 9.38235 6.14706 9.28529 6.01765 9.18823C5.66176 8.83235 5.66176 8.25 6.01765 7.86176L8.25 5.62941H0.938235C0.614705 5.62941 0.291176 5.43529 0.129411 5.17647C0.0647053 5.04706 0 4.88529 0 4.72353C0 4.20588 0.420588 3.78529 0.938235 3.78529H8.28235L6.01765 1.58529C5.66176 1.22941 5.66176 0.647059 6.01765 0.258824C6.14706 0.129412 6.27647 0.0647059 6.43824 0.0323529C6.50294 -1.86265e-08 6.6 0 6.66471 0C6.92353 0 7.15 0.0970592 7.31176 0.258824L11.0971 4.04412C11.2912 4.23823 11.3882 4.46471 11.3882 4.72353C11.4206 5.04706 11.2912 5.30588 11.0647 5.46765Z" fill="white"/>
</svg>
