<svg width="41" height="41" viewBox="0 0 41 41" fill="none" xmlns="http://www.w3.org/2000/svg">
<path d="M34.8078 6.00466C31.1159 2.29256 26.0237 0 20.39 0C14.7563 0 9.6644 2.29256 5.97253 6.00466C2.28066 9.71676 0 14.8359 0 20.5C0 26.1641 2.28066 31.2834 5.97253 34.9953C9.6644 38.7072 14.7563 41 20.39 41C26.0237 41 31.1159 38.7072 34.8078 34.9953C38.4996 31.2834 40.7801 26.1641 40.7801 20.5C40.7801 14.8359 38.4996 9.71676 34.8078 6.00466Z" fill="white"/>
<path fill-rule="evenodd" clip-rule="evenodd" d="M21.9483 16.3107V14.6308C21.9483 13.8249 22.4791 13.632 22.8636 13.632C23.2359 13.632 25.2003 13.632 25.2003 13.632V10.0449H21.9825C18.4036 10.0449 17.6022 12.701 17.6022 14.4265V16.3106H15.5244V18.8419V20.4994H17.6243C17.6243 25.2555 17.6243 30.9653 17.6243 30.9653H21.7907C21.7907 30.9653 21.7907 25.176 21.7907 20.4994H24.8725L25.0085 18.8535L25.257 16.3107H21.9483Z" fill="#0084FF"/>
</svg>
