<svg width="273" height="254" viewBox="0 0 273 254" fill="none" xmlns="http://www.w3.org/2000/svg">
<path d="M49.6271 145.538L24.4814 126.626" stroke="#0084FF" stroke-width="10" stroke-miterlimit="10" stroke-linecap="round" stroke-linejoin="round"/>
<path d="M5 152.377L23.8592 127.162" stroke="#0084FF" stroke-width="10" stroke-miterlimit="10" stroke-linecap="round" stroke-linejoin="round"/>
<path d="M124.286 11.697C126.522 10.8253 127.629 8.3012 126.76 6.05931C125.891 3.81742 123.373 2.7067 121.138 3.57844C118.902 4.45018 117.795 6.97427 118.664 9.21616C119.533 11.458 122.05 12.5688 124.286 11.697Z" fill="#0084FF" stroke="#0084FF" stroke-width="3"/>
<path d="M102.321 18.2751C104.344 16.9827 104.939 14.2903 103.65 12.2615C102.361 10.2327 99.6765 9.63585 97.6534 10.9283C95.6303 12.2208 95.0351 14.9131 96.3239 16.9419C97.6128 18.9707 100.298 19.5676 102.321 18.2751Z" fill="#0084FF" stroke="#0084FF" stroke-width="3"/>
<path d="M81.9496 29.0053C83.6825 27.342 83.7426 24.5848 82.0838 22.8471C80.4251 21.1094 77.6757 21.0492 75.9428 22.7126C74.2099 24.3759 74.1499 27.1331 75.8086 28.8708C77.4673 30.6085 80.2168 30.6687 81.9496 29.0053Z" fill="#0084FF" stroke="#0084FF" stroke-width="3"/>
<path d="M64.0821 43.4894C65.458 41.5189 64.9804 38.8029 63.0153 37.4231C61.0503 36.0434 58.3419 36.5223 56.9659 38.4929C55.59 40.4634 56.0676 43.1794 58.0327 44.5591C59.9977 45.9389 62.7061 45.46 64.0821 43.4894Z" fill="#0084FF" stroke="#0084FF" stroke-width="3"/>
<path d="M49.3816 61.1909C50.3476 58.9892 49.3508 56.4191 47.1552 55.4504C44.9596 54.4817 42.3967 55.4813 41.4307 57.683C40.4647 59.8847 41.4615 62.4548 43.6571 63.4235C45.8527 64.3922 48.4156 63.3926 49.3816 61.1909Z" fill="#0084FF" stroke="#0084FF" stroke-width="3"/>
<path d="M38.4456 81.4307C38.9647 79.0822 37.487 76.7564 35.1451 76.2359C32.8032 75.7153 30.4839 77.1972 29.9648 79.5456C29.4457 81.8941 30.9234 84.2198 33.2653 84.7404C35.6072 85.2609 37.9265 83.7791 38.4456 81.4307Z" fill="#0084FF" stroke="#0084FF" stroke-width="3"/>
<path d="M31.6972 103.505C31.7495 101.1 29.8477 99.1076 27.4494 99.0551C25.0512 99.0027 23.0646 100.91 23.0122 103.315C22.9599 105.72 24.8617 107.712 27.2599 107.764C29.6582 107.817 31.6448 105.91 31.6972 103.505Z" fill="#0084FF" stroke="#0084FF" stroke-width="3"/>
<path d="M146.501 5.323C213.594 5.323 268 59.881 268 127.162C268 194.442 213.594 249 146.501 249C79.4075 249 25.0015 194.442 25.0015 127.162" stroke="#0084FF" stroke-width="10" stroke-miterlimit="10" stroke-linecap="round" stroke-linejoin="round"/>
<g style="mix-blend-mode:multiply">
<path d="M124.665 115.626L124.666 115.625C126.243 113.537 129.241 113.132 131.298 114.743C133.347 116.348 133.738 119.387 132.164 121.471L132.164 121.471L124.665 115.626ZM124.665 115.626L91.5171 159.654L124.665 115.626ZM92.3799 166.379C93.1849 167.034 94.2158 167.351 95.231 167.351C96.6492 167.351 98.0655 166.709 99.0096 165.508L99.0096 165.508L99.0158 165.499L132.164 121.471L91.5167 159.655C89.9441 161.737 90.3337 164.773 92.3799 166.379ZM92.3799 166.379C92.3811 166.38 92.3824 166.381 92.3836 166.382L92.6919 165.989L92.3761 166.376C92.3774 166.377 92.3786 166.378 92.3799 166.379Z" fill="#0084FF"/>
<path d="M124.665 115.626L124.666 115.625C126.243 113.537 129.241 113.132 131.298 114.743C133.347 116.348 133.738 119.387 132.164 121.471L132.164 121.471L124.665 115.626ZM124.665 115.626L91.5171 159.654L124.665 115.626ZM92.3799 166.379C93.1849 167.034 94.2158 167.351 95.231 167.351C96.6492 167.351 98.0655 166.709 99.0096 165.508L99.0096 165.508L99.0158 165.499L132.164 121.471L91.5167 159.655C89.9441 161.737 90.3337 164.773 92.3799 166.379ZM92.3799 166.379C92.3811 166.38 92.3824 166.381 92.3836 166.382L92.6919 165.989L92.3761 166.376C92.3774 166.377 92.3786 166.378 92.3799 166.379Z" stroke="#0084FF"/>
</g>
<g style="mix-blend-mode:multiply">
<path d="M125.225 122.117L125.225 122.117L125.235 122.126C126.167 122.917 127.267 123.322 128.38 123.322C129.727 123.322 130.98 122.755 131.981 121.736L131.991 121.725L132.002 121.713C135.818 117.313 137.978 111.594 137.978 105.656C137.978 92.3892 127.396 81.5256 114.274 81.5256C111.662 81.5256 109.542 83.6974 109.542 86.3351C109.542 88.9729 111.662 91.1446 114.274 91.1446C122.1 91.1446 128.514 97.6637 128.514 105.656C128.514 109.199 127.218 112.67 124.835 115.304L124.835 115.304L124.827 115.313C123.102 117.309 123.253 120.35 125.225 122.117Z" fill="#0084FF"/>
<path d="M125.225 122.117L125.225 122.117L125.235 122.126C126.167 122.917 127.267 123.322 128.38 123.322C129.727 123.322 130.98 122.755 131.981 121.736L131.991 121.725L132.002 121.713C135.818 117.313 137.978 111.594 137.978 105.656C137.978 92.3892 127.396 81.5256 114.274 81.5256C111.662 81.5256 109.542 83.6974 109.542 86.3351C109.542 88.9729 111.662 91.1446 114.274 91.1446C122.1 91.1446 128.514 97.6637 128.514 105.656C128.514 109.199 127.218 112.67 124.835 115.304L124.835 115.304L124.827 115.313C123.102 117.309 123.253 120.35 125.225 122.117Z" stroke="#0084FF"/>
</g>
<g style="mix-blend-mode:multiply">
<path d="M95.2317 167.351H131.695C134.307 167.351 136.427 165.179 136.427 162.541C136.427 159.903 134.307 157.732 131.695 157.732H95.2317C92.6196 157.732 90.5 159.903 90.5 162.541C90.5 165.179 92.6196 167.351 95.2317 167.351Z" fill="#0084FF"/>
<path d="M95.2317 167.351H131.695C134.307 167.351 136.427 165.179 136.427 162.541C136.427 159.903 134.307 157.732 131.695 157.732H95.2317C92.6196 157.732 90.5 159.903 90.5 162.541C90.5 165.179 92.6196 167.351 95.2317 167.351Z" stroke="#0084FF"/>
</g>
<g style="mix-blend-mode:multiply">
<path d="M157.753 149.539H195.768C198.381 149.539 200.5 147.367 200.5 144.729C200.5 142.091 198.381 139.92 195.768 139.92H157.753C155.141 139.92 153.021 142.091 153.021 144.729C153.021 147.367 155.141 149.539 157.753 149.539Z" fill="#0084FF"/>
<path d="M157.753 149.539H195.768C198.381 149.539 200.5 147.367 200.5 144.729C200.5 142.091 198.381 139.92 195.768 139.92H157.753C155.141 139.92 153.021 142.091 153.021 144.729C153.021 147.367 155.141 149.539 157.753 149.539Z" stroke="#0084FF"/>
</g>
<g style="mix-blend-mode:multiply">
<path d="M181.799 163.691C181.799 166.328 183.918 168.5 186.531 168.5C189.137 168.5 191.262 166.406 191.262 163.691V126.198C191.262 123.56 189.143 121.388 186.531 121.388C183.918 121.388 181.799 123.56 181.799 126.198V163.691Z" fill="#0084FF"/>
<path d="M181.799 163.691C181.799 166.328 183.918 168.5 186.531 168.5C189.137 168.5 191.262 166.406 191.262 163.691V126.198C191.262 123.56 189.143 121.388 186.531 121.388C183.918 121.388 181.799 123.56 181.799 126.198V163.691Z" stroke="#0084FF"/>
</g>
<g style="mix-blend-mode:multiply">
<path d="M156.174 149.293L156.189 149.298L156.204 149.303C156.734 149.457 157.205 149.538 157.754 149.538C159.729 149.538 161.532 148.33 162.31 146.348L162.314 146.338L162.318 146.329L182.489 87.9348L182.49 87.9315C183.352 85.3785 182.022 82.6545 179.577 81.7708L179.577 81.7708L179.572 81.7691C177.045 80.8844 174.367 82.2559 173.504 84.734L173.504 84.7348L153.262 143.129L153.262 143.129L153.261 143.132C152.399 145.685 153.729 148.409 156.174 149.293Z" fill="#0084FF"/>
<path d="M156.174 149.293L156.189 149.298L156.204 149.303C156.734 149.457 157.205 149.538 157.754 149.538C159.729 149.538 161.532 148.33 162.31 146.348L162.314 146.338L162.318 146.329L182.489 87.9348L182.49 87.9315C183.352 85.3785 182.022 82.6545 179.577 81.7708L179.577 81.7708L179.572 81.7691C177.045 80.8844 174.367 82.2559 173.504 84.734L173.504 84.7348L153.262 143.129L153.262 143.129L153.261 143.132C152.399 145.685 153.729 148.409 156.174 149.293Z" stroke="#0084FF"/>
</g>
<path d="M90.5 105.658C90.5 108.296 92.6196 110.468 95.2317 110.468C97.8439 110.468 99.9635 108.296 99.9635 105.658C99.9635 97.6657 106.378 91.1466 114.204 91.1466C116.816 91.1466 118.936 88.9748 118.936 86.3371C118.936 83.6993 116.816 81.5276 114.204 81.5276C101.155 81.5276 90.5 92.3173 90.5 105.658Z" fill="#0084FF" stroke="#0084FF"/>
</svg>
