<svg width="111" height="40" viewBox="0 0 111 40" fill="none" xmlns="http://www.w3.org/2000/svg">
<path fill-rule="evenodd" clip-rule="evenodd" d="M92.2549 26.0971C89.2799 26.0971 86.875 23.4841 86.875 20.0826C86.875 16.5565 89.2799 13.9436 92.2549 13.9436C95.2307 13.9436 97.6352 16.6811 97.6352 20.0826C97.6352 23.4008 95.2307 26.0971 92.2549 26.0971ZM92.2539 8.80038C85.8956 8.80038 81.4531 13.8612 81.4531 20.0415C81.4531 26.1809 85.9771 31.158 91.5204 31.158C94.0473 31.158 96.3301 30.246 97.9196 28.4625V28.4629C97.917 28.5103 97.9125 28.5565 97.9125 28.6039C97.9125 30.0377 99.0546 31.2001 100.463 31.2001C101.872 31.2001 103.014 30.0377 103.014 28.6039V20.0415C103.014 13.8612 98.5716 8.80038 92.2539 8.80038Z" fill="#F2F2F2"/>
<path fill-rule="evenodd" clip-rule="evenodd" d="M21.1409 26.1801C18.233 26.1801 15.8652 23.691 15.8652 20.0823C15.8652 16.3907 18.233 13.8187 21.1409 13.8187C24.0492 13.8187 26.417 16.3907 26.417 20.0823C26.417 23.691 24.0492 26.1801 21.1409 26.1801ZM21.1372 8.80038C15.1965 8.80038 10.3779 13.654 10.3779 20.0415C10.3779 26.4294 15.1965 31.2001 21.1372 31.2001C27.0786 31.2001 31.9389 26.4294 31.9389 20.0415C31.9389 13.654 27.0786 8.80038 21.1372 8.80038Z" fill="#F2F2F2"/>
<path fill-rule="evenodd" clip-rule="evenodd" d="M45.1396 26.1227C42.1642 26.1227 39.7598 23.4401 39.7598 20.1388C39.7598 16.7546 42.1642 14.0309 45.1396 14.0309C48.1149 14.0309 50.5194 16.6306 50.5194 20.1388C50.5194 23.523 48.1149 26.1227 45.1396 26.1227ZM45.8733 8.99657C43.4279 8.99657 41.3495 9.78035 39.76 11.4727V2.83888C39.7611 2.80732 39.7645 2.77613 39.7645 2.74419C39.7645 1.22834 38.551 0 37.0543 0C35.5573 0 34.3437 1.22834 34.3437 2.74419H34.3389V20.0977C34.3389 26.247 38.7816 31.1995 45.1398 31.1995C51.4571 31.1995 55.8998 26.247 55.8998 20.0977C55.8998 13.9902 51.4165 8.99657 45.8733 8.99657Z" fill="#F2F2F2"/>
<path fill-rule="evenodd" clip-rule="evenodd" d="M5.5905 0C3.82629 0 2.39648 1.43238 2.39648 3.19976C2.39648 4.96675 3.82629 6.39991 5.5905 6.39991C7.35472 6.39991 8.78491 4.96675 8.78491 3.19976C8.78491 1.43238 7.35472 0 5.5905 0Z" fill="#F2F2F2"/>
<path fill-rule="evenodd" clip-rule="evenodd" d="M68.2973 25.9861C65.3219 25.9861 62.917 23.266 62.917 19.8862C62.917 16.5893 65.3219 13.9102 68.2973 13.9102C71.2727 13.9102 73.6772 16.4655 73.6772 19.8862C73.6772 23.3488 71.2727 25.9861 68.2973 25.9861ZM68.3002 8.80014C61.9415 8.80014 57.499 13.7872 57.499 19.887V37.2591C57.499 38.773 58.7125 39.9997 60.2093 39.9997C61.7064 39.9997 62.9199 38.773 62.9199 37.2591V28.5425C64.5094 30.1908 66.5879 31.0149 69.0337 31.0149C74.5766 31.0149 79.06 26.0279 79.06 19.887C79.06 13.7872 74.6175 8.80014 68.3002 8.80014Z" fill="#F2F2F2"/>
<path fill-rule="evenodd" clip-rule="evenodd" d="M7.98554 11.5385C7.98554 10.0263 6.81848 8.80048 5.37872 8.80048C3.93895 8.80048 2.77189 10.0263 2.77189 11.5385V11.5411V11.5442V22.0375V30.6832C2.77189 32.604 1.98194 34.3101 0.758532 35.4027L0.764673 35.4091C0.292938 35.8951 0 36.5716 0 37.3204C0 38.8004 1.14213 40 2.5512 40C3.26422 40 3.90825 39.6923 4.37095 39.1969L4.37926 39.2056C6.64005 37.1702 7.98554 34.1018 7.98554 30.6832V11.5442C7.98554 11.543 7.98518 11.5419 7.98518 11.5411C7.98518 11.54 7.98554 11.5392 7.98554 11.5385Z" fill="#F2F2F2"/>
<path fill-rule="evenodd" clip-rule="evenodd" d="M108.604 0C107.281 0 106.208 1.22834 106.208 2.74457V28.455C106.208 29.9708 107.281 31.1995 108.604 31.1995C109.927 31.1995 110.999 29.9708 110.999 28.455V2.74457C110.999 1.22834 109.927 0 108.604 0Z" fill="#F2F2F2"/>
</svg>
